<svg version="1.2" xmlns="http://www.w3.org/2000/svg" viewBox="0 0 111 42" width="111" height="42">
	<title>logo</title>
	<style>
		.s0 { fill: #4862bc } 
	</style>
	<path id="Taskee" class="s0" aria-label="Taskee"  d="m17.8 11.5h11.7v2.7h-4.5v14.8h-2.8v-14.8h-4.4zm20.4 7.3h2.4v10.2h-2.6v-1.5q-0.6 0.7-1.5 1.2-1 0.6-2.2 0.6-1.5 0-2.6-0.6-1.2-0.7-1.9-1.9-0.6-1.2-0.6-2.9 0-1.6 0.7-2.9 0.7-1.3 1.8-1.9 1.2-0.7 2.6-0.7 2.5 0 3.7 1.8zm-3.2 8.2q1.1 0 1.9-0.5 0.8-0.6 1.1-1.6v-2.3q-0.3-0.9-1.2-1.5-0.8-0.5-1.9-0.5-1.2 0-2.1 0.9-0.9 0.9-0.9 2.2 0 1 0.4 1.7 0.5 0.7 1.2 1.2 0.7 0.4 1.5 0.4zm12.4 2.2q-1.2 0-2.2-0.4-1-0.5-1.7-1.2l1.1-1.5q1.3 1.2 2.6 1.2 0.7 0 1.2-0.3 0.5-0.3 0.5-0.8 0-0.6-0.5-0.9-0.5-0.3-1.1-0.4-0.6-0.2-0.7-0.3-1.4-0.4-2-1.1-0.7-0.8-0.7-1.9 0-0.8 0.4-1.5 0.5-0.8 1.3-1.2 0.9-0.5 2.1-0.5 1.2 0 2 0.3 0.9 0.2 1.6 0.8l-1 1.6q-0.5-0.4-1.1-0.6-0.6-0.3-1.1-0.3-0.6 0-1 0.3-0.4 0.3-0.4 0.8 0 0.5 0.4 0.8 0.4 0.3 1.4 0.6 0.4 0.1 0.5 0.1 1.2 0.4 1.9 1.1 0.6 0.7 0.6 1.8 0 1.5-1 2.5-1.1 1-3.1 1zm13.8-0.2l-2.8-4.7-1.2 1v3.7h-2.7v-18.8h2.7v12.3l5.1-3.9 1.6 1.4-3.7 2.9 4.2 6.1zm10.3-2.1q1.1 0 2.2-0.8l1.3 2q-0.9 0.5-1.8 0.8-0.9 0.3-1.8 0.3-1.7 0-3-0.7-1.3-0.7-2-1.9-0.7-1.2-0.7-2.8 0-1.5 0.8-2.7 0.8-1.3 2.1-2 1.3-0.8 2.9-0.8 2 0 3.4 1.3 1.4 1.2 1.8 3.4l-7.8 2.6q0.4 0.6 1.1 1 0.6 0.3 1.5 0.3zm-0.3-6.4q-1.2 0-2 0.8-0.8 0.9-0.8 2.4 0 0.2 0 0.4l5.3-1.9q-0.3-0.8-0.9-1.3-0.6-0.4-1.6-0.4zm13.1 6.4q1.1 0 2.2-0.8l1.3 2q-0.9 0.5-1.8 0.8-0.9 0.3-1.8 0.3-1.7 0-3-0.7-1.3-0.7-2-1.9-0.7-1.2-0.7-2.8 0-1.5 0.8-2.7 0.8-1.3 2.1-2 1.3-0.8 2.9-0.8 2 0 3.4 1.3 1.4 1.2 1.8 3.4l-7.8 2.6q0.4 0.6 1.1 1 0.6 0.3 1.5 0.3zm-0.3-6.4q-1.2 0-2.1 0.8-0.7 0.9-0.7 2.4 0 0.2 0 0.4l5.3-1.9q-0.3-0.8-0.9-1.3-0.6-0.4-1.6-0.4z"/>
</svg>